<svg width="150" height="150" viewBox="0 0 150 150" fill="none" xmlns="http://www.w3.org/2000/svg">
<g clip-path="url(#clip0_1679_59675)">
<path d="M7.84629 98.3403C9.82039 97.7178 10.7734 95.6431 10.2288 93.2918C8.527 86.307 7.50593 78.9073 7.84629 69.2255C7.91435 66.6666 6.5529 65.2835 4.51073 65.1452C1.85588 64.9378 0.426356 66.5975 0.222139 68.7413C-0.390517 76.556 0.222139 85.892 2.87698 95.5048C3.5577 97.8561 5.73603 99.0318 7.84629 98.3403ZM4.85109 57.123C6.82519 57.8838 9.34388 56.9848 10.2969 54.3568C21.2567 23.2365 47.4646 7.7455 74.0811 7.7455C86.198 7.7455 95.7281 10.2351 103.829 14.9378C106.143 16.3209 108.73 16.3209 109.751 14.0387C110.84 11.6183 109.615 10.0968 107.913 8.99031C97.5661 2.42047 87.0829 0 74.0811 0C43.3122 0 15.4024 16.6667 2.87698 50.5533C1.58359 54.011 2.87698 56.4315 4.85109 57.123ZM146.442 82.2268C148.621 82.2268 150.186 80.4288 149.982 78.0083C146.919 49.8617 137.797 32.0885 122.072 18.119C120.098 16.3209 117.716 16.8741 116.559 18.2573C115.265 19.7095 115.129 21.9917 117.171 23.859C130.581 36.5837 140.316 53.0428 142.63 78.1465C142.903 80.4288 144.264 82.2268 146.442 82.2268Z" fill="white"/>
<path d="M15.7427 118.396C17.0361 120.194 19.6229 120.678 21.5289 119.018C26.4301 114.799 28.8808 108.022 28.8808 100.968C28.8808 91.4245 24.7964 86.5836 24.7964 74.6888C24.7964 47.5795 46.9881 25.0345 73.6726 25.0345C105.871 25.0345 126.633 51.798 126.701 91.2863C126.701 106.708 124.183 117.635 121.664 123.928C120.779 126.072 121.596 128.354 123.366 129.322C125.272 130.152 127.927 129.461 128.744 127.178C131.398 119.848 134.325 107.815 134.325 91.217C134.325 47.1645 110.432 17.2891 73.6726 17.2891C42.7676 17.2891 17.1723 43.361 17.1723 74.6888C17.1723 86.0305 21.3928 93.7068 21.4609 100.899C21.4609 105.602 19.759 110.097 16.5596 112.932C14.9259 114.315 14.6536 116.805 15.7427 118.396Z" fill="white"/>
<path d="M46.3753 93.776C44.6736 89.0733 41.8826 83.1258 41.8826 75.1038C41.8826 56.7081 55.9736 42.3928 74.0811 42.3928C81.0244 42.3928 83.2027 43.1535 89.2612 46.1273C91.3714 47.0955 93.2775 46.473 94.0264 44.9515C95.0474 43.0153 94.5028 40.664 92.1884 39.2808C87.6956 36.5837 80.8203 34.5781 74.0811 34.5781C51.7532 34.5781 34.1903 52.4205 34.1903 75.1038C34.1903 83.8175 36.5049 90.8713 38.8875 96.7496C39.8404 99.0318 41.8826 100.138 44.3333 99.101C46.3754 98.2711 47.1242 96.058 46.3753 93.776Z" fill="white"/>
<path d="M31.8079 131.259C36.8452 128.631 43.7206 119.64 45.6265 112.517C46.1711 110.581 45.2862 108.23 43.176 107.538C41.2698 106.847 39.2278 108.022 38.479 110.235C36.641 116.321 33.4416 120.885 28.4041 124.343C25.9536 126.072 25.6132 128.216 26.3621 129.806C27.1789 131.535 29.3572 132.504 31.8079 131.259ZM99.9486 55.3943C106.552 65.1453 109.819 78.6308 109.819 94.9516C109.819 112.379 105.054 128.838 97.6342 138.243C96.4089 139.903 96.2726 142.255 97.7703 143.776C99.404 145.297 102.195 145.228 103.556 143.361C111.861 131.95 117.307 113.831 117.307 94.675C117.307 73.7206 112.882 61.2725 106.688 51.2448C105.258 49.0318 102.876 48.3403 100.97 49.3776C98.9955 50.4841 98.383 53.0428 99.9486 55.3943Z" fill="white"/>
<path d="M46.1031 140.387C57.267 131.259 63.3937 116.736 63.3255 100.622C63.2574 88.4508 58.9689 80.9128 58.9689 74.2738C58.9689 65.56 65.0274 59.751 73.8768 59.751C87.4914 59.751 91.916 75.5185 92.3245 94.1908C92.9372 115.768 85.2449 134.025 75.1702 143.015C73.5365 144.398 73.1961 146.542 74.2853 148.271C75.5785 150.138 78.2335 150.484 80.0033 148.824C90.6227 139.004 99.6083 117.427 99.4722 93.6375C99.404 70.401 92.9372 52.0055 73.8768 52.0055C61.2153 52.0055 51.4808 60.581 51.4808 73.5822C51.4808 81.397 55.5653 91.0095 55.6332 100.622C55.7014 114.315 50.664 126.625 41.338 134.301C39.5 135.823 39.2278 138.036 40.3849 139.765C41.8144 141.77 44.2652 141.978 46.1031 140.387Z" fill="white"/>
<path d="M62.0322 145.92C67.4099 141.978 74.0811 132.918 76.6677 124.066C77.1444 122.545 76.804 119.986 74.6257 119.225C72.3111 118.395 70.337 119.571 69.7245 121.369C66.2527 130.636 61.964 136.099 57.4033 139.696C55.7014 141.079 55.225 143.361 56.3821 145.159C57.4713 147.095 60.1262 147.372 62.0322 145.92ZM80.548 107.953C82.4541 98.6168 81.7053 86.6527 78.3696 76.2793C77.4847 73.7205 75.5106 72.614 73.4003 73.3055C71.4262 73.9972 70.2009 75.8644 70.9497 78.2849C74.0811 88.3125 74.6257 98.2019 73.0599 106.915C72.6516 108.99 73.4684 110.996 75.851 111.341C78.0293 111.756 80.0715 110.442 80.548 107.953Z" fill="white"/>
</g>
<defs>
<clipPath id="clip0_1679_59675">
<rect width="150" height="150" fill="white"/>
</clipPath>
</defs>
</svg>
