<svg width="150" height="150" viewBox="0 0 150 150" fill="none" xmlns="http://www.w3.org/2000/svg">
<g clip-path="url(#clip0_1172_22330)">
<path d="M6.01504 48.8514C10 48.8514 12.1053 46.5543 12.1053 42.5727V24.5022C12.1053 16.5391 16.2407 12.4809 23.7594 12.4809H41.9549C45.9399 12.4809 48.1204 10.2603 48.1204 6.2787C48.1204 2.29709 45.9399 0.153137 41.9549 0.153137H23.6091C7.89474 0.153137 0 8.03979 0 23.8131V42.5727C0 46.5543 2.18045 48.8514 6.01504 48.8514ZM141.128 48.8514C145.113 48.8514 147.218 46.5543 147.218 42.5727V23.8131C147.218 8.03979 139.323 0.153137 123.609 0.153137H105.188C101.278 0.153137 99.0979 2.29709 99.0979 6.2787C99.0979 10.2603 101.278 12.4809 105.188 12.4809H123.384C130.827 12.4809 135.113 16.5391 135.113 24.5022V42.5727C135.113 46.5543 137.293 48.8514 141.128 48.8514ZM23.6091 150H41.9549C45.9399 150 48.1204 147.78 48.1204 143.874C48.1204 139.893 45.9399 137.672 41.9549 137.672H23.7594C16.2407 137.672 12.1053 133.614 12.1053 125.651V107.58C12.1053 103.522 9.9248 101.301 6.01504 101.301C2.10527 101.301 0 103.522 0 107.58V126.263C0 142.113 7.89474 150 23.6091 150ZM105.188 150H123.609C139.323 150 147.218 142.036 147.218 126.263V107.58C147.218 103.522 145.038 101.301 141.128 101.301C137.218 101.301 135.113 103.522 135.113 107.58V125.651C135.113 133.614 130.827 137.672 123.384 137.672H105.188C101.278 137.672 99.0979 139.893 99.0979 143.874C99.0979 147.78 101.278 150 105.188 150Z" fill="white" fill-opacity="0.85"/>
<path d="M44.9624 69.908C48.4963 69.908 51.0527 67.3812 51.0527 63.7059V53.2924C51.0527 49.617 48.4963 47.0903 44.9624 47.0903C41.4286 47.0903 38.9474 49.617 38.9474 53.2924V63.7059C38.9474 67.3812 41.4286 69.908 44.9624 69.908ZM67.5941 87.9784C67.7445 87.9784 67.97 87.9784 68.1956 87.9784C75.7896 87.9784 79.9252 83.7671 79.9252 76.0336V51.9141C79.9252 48.9279 77.9704 47.0137 75.1129 47.0137C72.1053 47.0137 70.1505 48.9279 70.1505 51.9141V76.7227C70.1505 77.4883 69.6993 77.8712 69.0226 77.8712H66.3911C63.6843 77.8712 61.579 80.0153 61.579 82.7713C61.579 86.0644 63.7595 87.9784 67.5941 87.9784ZM102.031 69.908C105.489 69.908 107.97 67.3812 107.97 63.7059V53.2924C107.97 49.617 105.489 47.0903 102.031 47.0903C98.4211 47.0903 95.9397 49.617 95.9397 53.2924V63.7059C95.9397 67.3812 98.4211 69.908 102.031 69.908ZM73.158 113.706C82.2558 113.706 91.4287 109.724 97.97 103.062C98.8723 102.22 99.3235 100.919 99.3235 99.3874C99.3235 96.4777 97.2185 94.4101 94.436 94.4101C93.0078 94.4101 91.9553 94.9464 90.5263 96.4777C86.3911 100.842 79.8498 103.828 73.158 103.828C66.8422 103.828 60.2257 100.996 55.8647 96.4777C54.6617 95.329 53.6843 94.4101 51.8798 94.4101C49.0978 94.4101 46.9926 96.4777 46.9926 99.3874C46.9926 100.689 47.4437 101.914 48.4211 102.986C54.5114 110.03 64.0602 113.706 73.158 113.706Z" fill="white" fill-opacity="0.85"/>
</g>
<defs>
<clipPath id="clip0_1172_22330">
<rect width="150" height="150" fill="white"/>
</clipPath>
</defs>
</svg>
